<svg id="Layer_1" data-name="Layer 1" xmlns="http://www.w3.org/2000/svg" viewBox="0 0 500.2 302.86"><defs><style>.cls-1{fill:#fff;}</style></defs><title>email</title><path class="cls-1" d="M5.5,28.21V274.65a22.71,22.71,0,0,0,22.71,22.71H472a22.71,22.71,0,0,0,22.71-22.71V28.21A22.71,22.71,0,0,0,472,5.5H28.21A22.71,22.71,0,0,0,5.5,28.21Zm430.85-.71L311.7,101.87l-19.49,11.62L257.5,134.21a14.46,14.46,0,0,1-14.8,0l-36.64-21.86-19.48-11.63L63.85,27.5ZM27.5,31.44l143,85.33-143,143ZM43.06,275.36l147-147,52.68,31.44a14.46,14.46,0,0,0,14.8,0l50.76-30.29L454.07,275.36ZM472.7,262.87,327.75,117.92l145-86.48Z"/><path class="cls-1" d="M472,302.86H28.21A28.24,28.24,0,0,1,0,274.65V28.21A28.24,28.24,0,0,1,28.21,0H472A28.24,28.24,0,0,1,500.2,28.21V274.65A28.24,28.24,0,0,1,472,302.86ZM28.21,11A17.23,17.23,0,0,0,11,28.21V274.65a17.23,17.23,0,0,0,17.21,17.21H472a17.23,17.23,0,0,0,17.21-17.21V28.21A17.23,17.23,0,0,0,472,11ZM467.35,280.86H29.78L189.16,121.47l56.36,33.63a8.91,8.91,0,0,0,9.16,0l54.44-32.48Zm-411-11H440.79L307.4,136.46l-47.08,28.09a19.91,19.91,0,0,1-20.43,0l-49-29.24Zm421.86,6.29L318.87,116.82,478.2,21.75ZM336.63,119,467.2,249.59V41.13ZM22,273.08V21.75l157.41,93.92ZM33,41.13V246.52L161.65,117.87ZM250.1,141.75a20,20,0,0,1-10.22-2.82L43.9,22H456.3l-196,116.93A19.9,19.9,0,0,1,250.1,141.75ZM83.8,33l161.72,96.48a8.91,8.91,0,0,0,9.16,0L416.4,33Z"/></svg>