<svg height="480pt" viewBox="0 0 480 480" width="480pt" xmlns="http://www.w3.org/2000/svg"><path d="m240 104c-22.082031.027344-39.972656 17.917969-40 40 .039062 8.953125 3.109375 17.628906 8.710938 24.617188-23.398438 3.59375-40.679688 23.710937-40.710938 47.382812v48c0 13.253906 10.746094 24 24 24h8v80c0 4.417969 3.582031 8 8 8h64c4.417969 0 8-3.582031 8-8v-80h8c13.253906 0 24-10.746094 24-24v-48c-.03125-23.671875-17.3125-43.789062-40.710938-47.382812 5.601563-6.988282 8.671876-15.664063 8.710938-24.617188-.027344-22.082031-17.917969-39.972656-40-40zm0 16c13.253906 0 24 10.746094 24 24s-10.746094 24-24 24-24-10.746094-24-24 10.746094-24 24-24zm56 96v48c0 4.417969-3.582031 8-8 8h-8v-40h-16v128h-16v-56h-16v56h-16v-128h-16v40h-8c-4.417969 0-8-3.582031-8-8v-48c0-17.671875 14.328125-32 32-32h48c17.671875 0 32 14.328125 32 32zm0 0"/><path d="m367.289062 168.617188c5.601563-6.988282 8.671876-15.664063 8.710938-24.617188 0-22.089844-17.910156-40-40-40s-40 17.910156-40 40 17.910156 40 40 40h24c17.671875 0 32 14.328125 32 32v48c0 4.417969-3.582031 8-8 8h-8v-40h-16v128h-16v-56h-16v56h-16v-56h-16v64c0 4.417969 3.582031 8 8 8h64c4.417969 0 8-3.582031 8-8v-80h8c13.253906 0 24-10.746094 24-24v-48c-.03125-23.671875-17.3125-43.789062-40.710938-47.382812zm-55.289062-24.617188c0-13.253906 10.746094-24 24-24s24 10.746094 24 24-10.746094 24-24 24-24-10.746094-24-24zm0 0"/><path d="m184 368v-64h-16v56h-16v-56h-16v56h-16v-128h-16v40h-8c-4.417969 0-8-3.582031-8-8v-48c0-17.671875 14.328125-32 32-32h24c22.089844 0 40-17.910156 40-40s-17.910156-40-40-40-40 17.910156-40 40c.039062 8.953125 3.109375 17.628906 8.710938 24.617188-23.398438 3.59375-40.679688 23.710937-40.710938 47.382812v48c0 13.253906 10.746094 24 24 24h8v80c0 4.417969 3.582031 8 8 8h64c4.417969 0 8-3.582031 8-8zm-40-248c13.253906 0 24 10.746094 24 24s-10.746094 24-24 24-24-10.746094-24-24 10.746094-24 24-24zm0 0"/><path d="m240 80c23.589844-.070312 46.894531 5.125 68.222656 15.199219l6.832032-14.472657c-47.671876-22.410156-102.867188-22.34375-150.488282.183594l6.867188 14.449219c21.417968-10.183594 44.847656-15.433594 68.566406-15.359375zm0 0"/><path d="m240 400c-23.71875.0625-47.152344-5.195312-68.566406-15.390625l-6.867188 14.445313c47.621094 22.527343 102.816406 22.597656 150.488282.183593l-6.832032-14.4375c-21.328125 10.074219-44.632812 15.269531-68.222656 15.199219zm0 0"/><path d="m248 16.199219v-16.199219h-16v16.199219c-117.34375 4.328125-211.472656 98.457031-215.800781 215.800781h-16.199219v16h16.199219c4.328125 117.34375 98.457031 211.472656 215.800781 215.800781v16.199219h16v-16.199219c117.34375-4.328125 211.472656-98.457031 215.800781-215.800781h16.199219v-16h-16.199219c-4.328125-117.34375-98.457031-211.472656-215.800781-215.800781zm0 431.601562v-15.800781h-16v15.800781c-108.511719-4.304687-195.496094-91.289062-199.800781-199.800781h15.800781v-16h-15.800781c4.304687-108.511719 91.289062-195.496094 199.800781-199.800781v15.800781h16v-15.800781c108.511719 4.304687 195.496094 91.289062 199.800781 199.800781h-15.800781v16h15.800781c-4.304687 108.511719-91.289062 195.496094-199.800781 199.800781zm0 0"/></svg>